<?xml version="1.0" standalone="no"?>
<!DOCTYPE svg PUBLIC "-//W3C//DTD SVG 20010904//EN"
 "http://www.w3.org/TR/2001/REC-SVG-20010904/DTD/svg10.dtd">
<svg version="1.0" xmlns="http://www.w3.org/2000/svg"
 width="600.000000pt" height="1280.000000pt" viewBox="0 0 600.000000 1280.000000"
 preserveAspectRatio="xMidYMid meet">

<g transform="translate(0.000000,1280.000000) scale(0.100000,-0.100000)"
fill="#000000" stroke="none">
<path d="M3155 9460 c-3 -5 -3 -10 1 -10 4 0 -7 -13 -24 -29 -16 -16 -28 -32
-25 -34 2 -3 -9 -15 -26 -28 -17 -13 -31 -28 -31 -35 0 -6 -7 -15 -16 -18 -8
-3 -13 -10 -9 -15 3 -5 -6 -21 -19 -34 -14 -14 -22 -28 -18 -33 4 -4 -1 -4
-11 -1 -15 6 -16 4 -6 -16 11 -20 11 -21 -4 -9 -14 12 -17 10 -23 -13 -7 -30
-22 -22 -27 15 -2 13 -9 26 -15 28 -7 2 -12 9 -12 17 0 7 -6 18 -14 24 -8 7
-17 24 -21 38 -10 40 -44 84 -63 81 -10 -2 -26 -11 -36 -20 -11 -10 -27 -18
-36 -18 -9 0 -27 -9 -40 -20 -13 -12 -30 -18 -37 -15 -8 2 -12 1 -9 -4 3 -5
-1 -14 -9 -21 -12 -10 -15 -10 -15 1 0 11 -2 11 -10 -1 -15 -23 -12 -28 14
-26 13 0 22 4 20 7 -5 9 58 39 68 33 5 -3 7 0 6 8 -2 7 3 12 10 11 6 -2 12 2
12 7 0 6 5 10 12 10 6 0 20 8 31 18 11 9 18 12 14 6 -3 -6 5 -17 18 -24 14 -7
25 -22 25 -32 0 -10 7 -21 15 -24 8 -4 15 -15 15 -25 0 -10 5 -19 10 -19 6 0
10 -7 10 -16 0 -9 8 -23 18 -30 10 -8 12 -13 4 -14 -16 0 7 -40 24 -40 16 0
74 61 74 76 0 7 10 20 22 28 12 9 18 16 13 16 -6 0 -2 5 8 11 9 5 17 17 17 24
0 8 5 15 10 15 6 0 10 7 10 16 0 8 5 12 10 9 6 -3 18 7 28 24 9 17 21 31 25
31 5 0 5 6 2 13 -4 6 3 2 14 -11 l20 -23 11 22 c9 17 9 23 0 29 -7 5 -10 15
-7 23 4 12 2 14 -10 10 -11 -4 -14 -2 -9 5 4 7 5 12 2 12 -3 0 -8 -4 -11 -10z"/>
<path d="M1640 9386 c0 -8 -7 -21 -15 -29 -8 -8 -12 -24 -10 -36 2 -12 -1 -21
-7 -21 -6 0 -8 -3 -5 -7 4 -3 -3 -18 -15 -31 -13 -14 -17 -22 -10 -18 6 4 12
3 12 -3 0 -5 -6 -12 -12 -14 -8 -4 -7 -6 3 -6 9 -1 23 7 30 16 10 11 10 14 2
9 -8 -4 -13 -1 -13 8 0 9 6 15 13 14 7 -2 13 9 15 25 2 18 7 25 15 20 7 -4 5
2 -3 12 -8 10 -10 16 -5 13 6 -3 20 -2 32 3 16 6 21 13 16 26 -11 31 -43 45
-43 19z"/>
<path d="M3192 9365 c-7 -8 -13 -16 -14 -17 -1 -2 5 -14 12 -28 7 -13 13 -36
12 -50 0 -14 9 -37 21 -51 24 -28 77 -48 77 -28 0 7 10 9 25 7 14 -3 30 1 36
8 13 15 33 19 25 5 -4 -5 6 -7 21 -5 25 4 100 12 145 17 9 1 14 5 11 10 -3 4
18 6 46 4 46 -4 50 -3 39 11 -11 13 -10 14 9 4 14 -8 24 -9 28 -2 3 5 15 10
26 10 20 0 20 0 0 -29 -11 -15 -18 -31 -14 -35 3 -3 0 -6 -9 -6 -14 0 -48 -30
-48 -42 0 -10 40 -16 46 -7 3 5 10 7 15 4 9 -6 10 -5 14 35 1 13 8 26 14 28 6
2 11 10 11 18 0 8 6 14 14 14 12 0 26 20 26 36 0 10 -144 -6 -151 -17 -4 -8
-20 -10 -42 -6 -20 3 -61 0 -91 -7 -30 -7 -57 -11 -60 -9 -2 3 -13 0 -25 -6
-13 -8 -22 -8 -26 -1 -4 6 -11 7 -17 4 -6 -4 -27 -9 -47 -11 -19 -2 -38 -8
-41 -13 -3 -4 -14 -2 -24 6 -11 8 -16 14 -10 14 5 0 1 5 -9 11 -14 8 -16 14
-6 25 6 8 7 14 2 14 -5 0 -10 10 -10 22 -1 13 -7 24 -13 26 -5 2 -7 14 -4 28
7 27 4 29 -14 9z"/>
<path d="M1229 9298 c0 -29 -2 -66 -4 -83 -3 -21 -2 -26 5 -15 6 9 10 10 10 3
0 -6 -5 -15 -10 -18 -8 -5 -8 -11 0 -20 7 -8 7 -15 1 -19 -5 -3 -7 -16 -3 -28
3 -14 2 -19 -6 -14 -7 4 -12 0 -13 -11 0 -10 -3 -27 -5 -38 -3 -11 -5 -28 -5
-38 0 -9 -4 -15 -10 -12 -5 4 -9 -7 -9 -24 0 -16 -5 -33 -10 -36 -8 -5 -7 -12
2 -23 10 -12 10 -14 1 -8 -9 5 -13 0 -13 -14 0 -12 -4 -18 -10 -15 -5 3 -10 1
-10 -4 0 -6 6 -11 13 -12 6 0 3 -4 -8 -9 -11 -5 -14 -9 -7 -9 8 -1 10 -6 5
-13 -8 -13 -12 -29 -15 -60 -1 -10 -6 -18 -10 -18 -4 0 -5 -6 -2 -14 3 -7 -2
-20 -10 -29 -18 -17 -21 -32 -6 -22 6 3 7 -1 4 -9 -3 -9 -9 -16 -13 -16 -4 0
-8 -8 -9 -17 -1 -10 -3 -29 -6 -43 -2 -14 -5 -35 -5 -48 -1 -13 -5 -20 -11
-17 -6 4 -10 -5 -10 -20 0 -15 -4 -24 -10 -20 -5 3 -10 0 -10 -8 0 -16 -27
-30 -40 -22 -4 3 -10 -2 -14 -10 -3 -8 -2 -15 2 -16 4 0 24 -2 45 -5 27 -3 39
-1 43 11 3 8 14 15 24 15 11 0 22 5 25 10 3 6 11 10 16 10 6 0 7 -4 4 -10 -3
-5 -1 -10 5 -10 6 0 13 6 16 14 3 7 15 12 27 11 12 0 29 2 38 7 9 4 34 10 54
12 21 3 41 10 45 16 3 6 17 9 31 6 13 -2 31 2 39 9 19 16 88 36 94 26 2 -3 7
-41 10 -84 4 -43 7 -81 7 -85 1 -4 1 -9 -1 -12 -1 -3 -2 -21 -3 -41 -2 -36 1
-38 45 -30 4 0 10 11 13 22 6 17 9 19 16 8 6 -10 9 -11 9 -1 0 6 7 12 16 12 8
0 12 5 9 10 -3 6 3 10 15 10 11 0 28 9 37 20 10 11 22 20 29 20 6 0 16 12 23
27 9 20 14 24 21 14 6 -10 9 -8 15 8 3 12 10 19 15 16 5 -3 12 0 16 6 5 9 11
7 21 -6 7 -11 13 -13 13 -6 0 7 5 9 10 6 6 -3 10 -1 10 4 0 6 -4 11 -10 11 -5
0 -10 6 -10 14 0 15 -16 16 -37 3 -7 -5 -13 -5 -13 -1 0 4 -8 -3 -19 -14 -10
-12 -24 -22 -31 -22 -7 0 -10 -3 -7 -7 10 -10 -25 -32 -53 -33 -23 -1 -23 -2
-5 -10 11 -5 14 -9 7 -9 -7 -1 -30 -12 -52 -26 -22 -14 -40 -22 -40 -18 0 4
-5 2 -12 -5 -7 -7 -14 -12 -17 -12 -4 0 -6 40 -6 90 0 49 -4 90 -9 90 -5 0 -3
6 3 14 9 10 8 15 -4 20 -8 3 -15 11 -15 18 0 10 2 10 9 0 7 -11 9 -11 14 1 4
12 1 14 -16 10 -12 -3 -31 -6 -43 -7 -11 -1 -26 -6 -33 -10 -8 -5 -17 -3 -22
5 -7 11 -9 11 -9 -2 0 -20 -27 -33 -36 -18 -4 6 -11 6 -19 -1 -8 -7 -20 -8
-26 -4 -8 4 -9 3 -5 -4 4 -7 1 -12 -6 -13 -45 -3 -111 -19 -125 -30 -7 -6 -17
-8 -23 -4 -5 3 -10 1 -10 -4 0 -6 -10 -11 -23 -11 -13 0 -29 -6 -36 -12 -11
-10 -13 -10 -7 0 4 6 3 12 -3 12 -7 0 -7 8 -1 23 13 32 24 80 21 95 -1 6 2 12
6 12 7 0 11 16 16 71 1 9 7 15 13 12 8 -3 11 7 7 33 -3 23 -1 34 5 30 5 -3 13
1 16 10 3 8 2 12 -4 9 -15 -9 -12 4 4 21 8 8 12 23 9 35 -4 14 -2 20 4 16 6
-4 13 10 17 33 3 22 10 40 14 40 4 0 6 19 6 42 -2 49 5 66 17 47 6 -10 9 -7 9
12 0 14 -5 30 -11 36 -9 9 -7 11 7 7 18 -5 19 1 18 94 -1 55 -5 106 -10 113
-12 20 46 -19 79 -53 15 -15 32 -28 37 -28 6 0 10 -7 10 -16 0 -8 5 -12 10 -9
6 3 10 1 10 -5 0 -7 7 -10 14 -7 10 4 13 1 9 -9 -3 -7 0 -14 6 -14 6 0 10 -3
10 -7 -1 -5 -1 -15 0 -23 1 -13 2 -13 11 0 8 13 11 11 16 -7 5 -19 9 -21 26
-12 15 8 17 13 7 25 -6 8 -14 12 -17 9 -6 -6 -52 43 -52 56 0 5 -3 8 -7 8 -19
-3 -34 2 -29 9 6 10 -30 43 -38 35 -3 -4 -6 1 -6 11 0 9 -4 15 -9 12 -9 -6
-26 22 -23 37 1 4 -9 7 -22 7 -16 0 -23 5 -22 17 0 10 -7 19 -16 21 -15 3 -18
-5 -19 -50z"/>
<path d="M4087 9338 c4 -7 -1 -9 -15 -6 -12 4 -26 0 -33 -8 -6 -8 -20 -14 -30
-14 -11 0 -19 -7 -19 -15 0 -20 29 -19 51 1 10 9 32 17 51 18 52 5 54 6 33 18
-27 16 -47 19 -38 6z"/>
<path d="M1660 9322 c0 -12 32 -32 42 -26 9 6 9 3 -1 -9 -12 -16 -8 -22 12
-18 5 1 6 -12 4 -27 -3 -20 1 -33 13 -42 10 -7 16 -19 13 -27 -3 -7 1 -13 10
-13 19 0 31 17 17 22 -6 2 -12 10 -13 19 -2 8 -15 40 -30 71 -21 42 -33 56
-47 55 -11 -1 -20 -3 -20 -5z"/>
<path d="M2354 9321 c3 -5 -1 -11 -8 -14 -8 -3 -17 -1 -20 6 -3 9 -5 8 -5 -1
-1 -7 -5 -10 -11 -7 -5 3 -10 -1 -10 -9 0 -9 -3 -15 -7 -15 -23 4 -43 -2 -38
-11 3 -5 -1 -10 -11 -10 -9 0 -23 -8 -30 -17 -9 -12 -13 -14 -14 -5 0 10 -4
10 -16 -2 -8 -9 -24 -16 -35 -16 -10 0 -19 -4 -19 -10 0 -5 -11 -12 -25 -16
-14 -3 -25 -10 -25 -16 0 -5 -4 -7 -9 -3 -6 3 -14 -3 -20 -12 -7 -13 -10 -14
-11 -4 0 9 -7 6 -19 -8 -11 -13 -25 -20 -30 -16 -6 3 -11 1 -11 -5 0 -6 -4 -8
-10 -5 -5 3 -10 1 -10 -5 0 -6 -5 -8 -12 -4 -6 4 -8 3 -5 -3 8 -12 -20 -26
-34 -17 -5 3 -9 1 -9 -5 0 -6 -18 -19 -40 -30 l-40 -19 0 24 c0 13 1 25 3 27
1 1 -8 13 -20 27 -13 13 -23 27 -23 32 0 4 -7 5 -16 1 -16 -6 -16 -7 -1 -18 9
-7 14 -15 10 -18 -3 -4 -1 -7 5 -7 7 0 12 -9 12 -19 0 -11 5 -23 10 -26 6 -4
8 -11 5 -16 -4 -5 -1 -9 4 -9 6 0 11 -7 11 -15 0 -8 5 -15 11 -15 5 0 8 4 4
10 -3 5 12 14 34 20 21 5 42 17 45 26 4 9 13 14 21 10 9 -3 18 1 21 8 5 12 33
25 57 25 4 0 15 7 23 16 9 8 20 13 25 9 5 -3 8 0 7 7 -2 8 16 20 42 29 25 8
51 22 58 30 10 11 12 11 6 1 -8 -15 1 -12 46 19 48 33 120 71 121 63 0 -4 2
-17 4 -28 2 -10 0 -24 -5 -31 -6 -6 -11 -25 -13 -43 -2 -18 -8 -36 -13 -39
-18 -14 -13 -31 9 -29 24 1 40 14 50 37 4 12 6 11 6 -3 1 -16 3 -16 24 -2 13
8 27 12 31 8 4 -5 6 -1 4 7 -2 10 3 14 15 12 10 -2 17 3 17 13 0 9 4 14 9 11
5 -4 11 -1 13 4 2 6 13 12 25 13 12 0 19 5 17 9 -9 14 -43 9 -64 -9 -11 -10
-23 -16 -25 -13 -2 3 -11 -4 -20 -15 -9 -11 -14 -15 -11 -9 3 6 -2 11 -10 11
-8 0 -13 -5 -11 -11 3 -6 -8 -12 -24 -13 -28 -2 -37 6 -22 21 9 9 14 33 16 78
1 20 5 34 8 32 4 -2 10 3 13 12 9 23 8 24 -15 24 -11 0 -18 -4 -15 -9z"/>
<path d="M4115 9301 c-6 -11 9 -23 19 -14 9 9 7 23 -3 23 -6 0 -12 -4 -16 -9z"/>
<path d="M4593 9287 c-8 -16 -7 -25 3 -35 17 -16 19 -46 2 -36 -6 4 -8 3 -4
-4 3 -6 2 -13 -4 -17 -16 -10 -12 -28 6 -21 8 3 12 2 9 -4 -3 -6 -1 -10 4 -10
12 0 14 9 13 53 0 15 4 27 9 27 6 0 7 4 4 10 -3 5 -1 18 4 28 13 24 3 36 -17
19 -13 -9 -14 -9 -8 1 4 6 3 12 -2 12 -5 0 -13 -10 -19 -23z"/>
<path d="M3966 9288 c5 -8 2 -9 -9 -5 -10 3 -17 2 -17 -3 0 -4 -14 -12 -32
-15 -17 -4 -38 -13 -45 -21 -7 -7 -22 -11 -33 -9 -11 2 -20 -1 -20 -6 0 -15
29 -22 43 -11 6 6 17 11 22 12 32 4 54 13 59 25 2 7 16 12 29 11 19 -2 23 1
19 16 -2 10 -9 18 -14 18 -5 0 -6 -5 -2 -12z"/>
<path d="M4547 9283 c-9 -2 -15 -9 -12 -14 4 -5 3 -9 -2 -10 -29 -3 -47 -9
-54 -21 -4 -7 -11 -9 -15 -6 -3 4 -13 0 -21 -8 -8 -8 -19 -12 -24 -9 -5 4 -9
1 -9 -4 0 -6 -3 -10 -7 -10 -19 3 -33 -2 -33 -12 0 -6 6 -9 14 -6 7 3 19 0 26
-6 10 -9 11 -9 6 1 -5 8 0 12 12 12 11 0 23 7 26 16 3 9 13 14 21 10 8 -3 21
1 29 9 8 8 19 15 25 15 13 0 51 31 51 42 0 8 -4 9 -33 1z"/>
<path d="M2570 9271 c0 -8 -3 -11 -6 -8 -10 9 -46 -12 -39 -23 7 -11 41 -8 55
6 6 6 6 15 0 24 -8 12 -10 13 -10 1z"/>
<path d="M4127 9273 c-12 -12 -7 -22 8 -17 8 4 15 10 15 15 0 11 -14 12 -23 2z"/>
<path d="M4146 9248 c-7 -20 -3 -48 5 -43 9 6 23 -25 20 -44 -1 -8 2 -10 10
-5 9 5 10 2 6 -9 -4 -12 2 -22 20 -34 23 -15 27 -15 37 -2 6 9 17 14 24 12 6
-3 12 -1 12 4 0 5 21 15 46 22 42 13 45 15 29 27 -14 11 -20 10 -32 -2 -15
-14 -27 -18 -52 -15 -8 2 -10 -2 -5 -10 5 -9 1 -11 -14 -7 -15 4 -22 2 -22 -8
0 -20 -20 -17 -21 4 -1 9 -1 20 0 25 0 4 -4 7 -10 7 -5 0 -8 4 -5 9 3 5 -1 12
-9 15 -8 3 -15 9 -14 13 7 40 -15 74 -25 41z"/>
<path d="M3790 9211 c0 -6 -3 -10 -7 -9 -13 3 -53 -13 -53 -22 0 -15 28 -19
34 -3 4 8 12 13 19 10 24 -9 40 8 22 23 -10 8 -15 9 -15 1z"/>
<path d="M1554 9197 c-6 -7 -9 -18 -6 -25 2 -6 -2 -12 -9 -12 -7 0 -9 -3 -6
-7 4 -3 1 -13 -6 -21 -10 -13 -9 -14 2 -7 10 5 12 4 7 -3 -4 -7 -13 -12 -21
-12 -19 0 -27 -16 -20 -40 7 -22 35 -17 35 7 0 8 4 12 8 9 5 -3 9 0 10 7 4 45
8 57 19 57 7 0 10 7 7 15 -4 8 -1 15 5 15 6 0 8 7 5 15 -7 18 -15 18 -30 2z"/>
<path d="M4585 9151 c3 -5 1 -12 -4 -15 -5 -3 -8 -22 -7 -41 1 -22 -3 -35 -11
-35 -7 0 -13 -4 -13 -10 0 -5 -9 -10 -20 -10 -11 0 -20 -4 -20 -9 0 -5 -7 -12
-16 -15 -15 -6 -15 -4 -3 10 13 16 12 16 -8 5 -13 -6 -23 -9 -23 -5 0 3 -7 1
-16 -7 -9 -7 -25 -13 -36 -14 -21 -2 -42 -26 -30 -36 4 -4 17 -10 28 -13 16
-5 23 -2 26 12 3 10 11 19 19 20 24 1 57 10 77 21 11 6 22 7 26 4 3 -3 6 -1 6
6 0 8 6 11 16 7 8 -3 13 -2 10 3 -3 5 1 32 10 60 15 51 13 71 -7 71 -6 0 -8
-4 -4 -9z"/>
<path d="M4436 8953 c-16 -17 -5 -33 19 -27 18 4 27 1 31 -11 4 -9 12 -14 19
-11 6 2 18 -4 25 -14 8 -11 17 -17 21 -15 4 3 9 -4 12 -15 4 -15 1 -20 -10
-18 -20 4 -29 -18 -10 -25 20 -8 77 45 63 59 -6 6 -18 8 -25 6 -10 -3 -12 0
-8 12 4 10 3 15 -3 11 -6 -4 -17 1 -26 10 -9 9 -23 14 -31 11 -8 -4 -11 -1 -8
5 4 6 -1 9 -11 7 -11 -2 -18 2 -17 7 2 12 -31 17 -41 8z"/>
<path d="M4285 8848 c-4 -9 -3 -23 1 -30 4 -7 9 -26 9 -43 1 -16 5 -38 10 -48
4 -10 5 -21 1 -24 -3 -3 -1 -12 6 -20 6 -7 11 -27 10 -43 0 -20 3 -27 13 -24
13 5 15 39 3 59 -2 6 -4 24 -3 40 1 17 -5 42 -12 58 -8 15 -11 27 -8 27 14 0
74 -38 68 -43 -3 -4 6 -12 21 -18 14 -7 26 -16 26 -21 0 -5 10 0 22 11 11 11
26 18 31 14 6 -3 7 -1 3 5 -4 7 -1 12 9 12 9 0 13 4 10 10 -3 5 0 7 8 4 8 -3
17 2 21 11 3 9 12 13 18 10 7 -4 5 0 -5 9 -22 17 -43 12 -58 -15 -5 -11 -17
-19 -25 -19 -8 0 -12 -4 -9 -10 3 -5 2 -10 -4 -10 -5 0 -13 5 -16 10 -5 8 -11
7 -21 -1 -12 -10 -13 -9 -8 5 4 11 1 16 -12 16 -15 0 -16 2 -6 9 10 6 7 10
-12 15 -15 4 -24 11 -21 17 4 5 3 9 -2 8 -21 -4 -34 2 -27 13 5 7 2 9 -9 5 -9
-3 -18 -1 -20 6 -3 8 -7 6 -12 -5z"/>
<path d="M4334 8596 c-3 -8 -1 -23 5 -33 10 -20 9 -62 -3 -81 -5 -8 -15 -8
-33 -1 -29 11 -51 -7 -32 -26 6 -6 13 -5 18 4 5 7 11 9 14 4 5 -7 31 -9 68 -4
11 1 18 41 8 41 -5 0 -9 5 -9 11 0 5 6 7 13 4 6 -4 5 -1 -3 7 -9 7 -16 22 -16
33 -2 44 -4 55 -14 55 -6 0 -13 -6 -16 -14z"/>
<path d="M4110 8581 c0 -10 -11 -29 -25 -42 -13 -13 -25 -34 -25 -46 0 -13 -5
-23 -10 -23 -9 0 -34 -49 -30 -59 2 -5 -22 -21 -32 -21 -4 0 -9 8 -12 18 -3
10 -20 26 -36 36 -17 9 -27 22 -24 28 4 6 2 8 -3 5 -6 -4 -16 6 -22 22 -10 22
-17 27 -37 23 -24 -4 -34 -22 -12 -22 6 0 8 -3 5 -6 -4 -4 -14 -1 -22 6 -13
11 -16 11 -13 -1 2 -9 -4 -13 -14 -11 -12 2 -16 -2 -12 -13 5 -11 2 -14 -12
-8 -12 4 -15 3 -10 -5 5 -8 2 -10 -8 -6 -9 4 -18 -1 -22 -10 -3 -9 -10 -14
-15 -11 -4 3 -13 -4 -19 -16 -7 -11 -14 -18 -18 -15 -10 10 -8 86 3 86 7 0 7
3 0 8 -5 4 -10 23 -10 42 0 33 -2 35 -34 35 -19 0 -39 -5 -45 -11 -6 -5 -23
-9 -38 -9 -16 1 -28 -2 -28 -7 0 -5 -5 -6 -11 -2 -8 4 -9 -1 -4 -17 7 -21 6
-22 -9 -7 -14 15 -19 15 -46 1 -17 -8 -38 -12 -46 -9 -9 3 -12 2 -9 -4 4 -7
-3 -9 -19 -6 -14 3 -28 0 -32 -5 -3 -6 -12 -8 -20 -5 -7 3 -16 1 -19 -4 -3 -5
-11 -7 -19 -4 -7 3 -25 -8 -41 -23 -16 -15 -25 -22 -21 -15 10 17 -9 15 -23
-2 -9 -11 -9 -20 -2 -34 6 -11 7 -23 3 -26 -4 -4 2 -12 13 -18 19 -11 19 -11
0 -18 -12 -4 -25 -1 -34 8 -10 9 -16 11 -19 4 -2 -6 -11 -3 -22 8 -11 11 -26
17 -35 14 -8 -4 -15 -2 -15 3 0 13 -49 35 -61 28 -5 -4 -9 -1 -9 4 0 6 -9 11
-20 11 -13 0 -22 9 -26 25 -3 14 -10 25 -15 25 -5 0 -6 7 -2 16 4 11 2 15 -7
12 -17 -5 -22 -38 -7 -38 8 0 8 -3 -1 -8 -9 -6 -4 -16 18 -35 16 -15 30 -23
30 -17 0 5 9 1 20 -10 11 -11 29 -20 39 -20 11 0 22 -6 24 -12 4 -10 6 -10 6
-1 1 10 7 10 26 1 14 -6 25 -14 25 -18 0 -9 38 -23 62 -23 10 0 14 -5 11 -13
-6 -16 5 -18 26 -5 14 9 22 81 9 81 -5 0 -8 6 -8 13 0 23 24 46 54 51 16 3 32
9 35 13 3 5 25 8 49 8 23 -1 42 2 42 6 0 10 37 22 75 24 43 3 43 3 48 23 4 16
5 16 6 0 1 -22 21 -24 21 -2 0 12 6 15 27 10 17 -5 29 -3 34 6 7 10 11 10 21
0 9 -9 9 -12 -1 -12 -7 0 -9 -5 -6 -11 10 -16 13 -59 4 -59 -4 0 -5 -17 -3
-37 2 -21 5 -44 6 -50 2 -19 22 -16 38 6 7 11 18 17 23 14 6 -4 7 -1 2 7 -6
10 -4 12 7 8 8 -4 26 4 40 17 14 13 28 21 31 19 3 -3 10 4 17 15 6 12 15 19
20 16 4 -3 16 2 24 11 15 15 21 8 17 -18 0 -5 5 -8 12 -8 12 0 38 -33 36 -46
0 -4 13 -13 30 -22 17 -8 31 -21 31 -28 0 -15 10 -17 34 -8 9 3 13 10 10 15
-8 14 16 50 28 43 7 -5 9 -1 5 9 -4 11 -1 17 9 17 8 0 13 4 10 9 -3 5 1 14 9
21 13 11 13 14 -2 25 -10 8 -15 17 -10 21 4 4 7 2 7 -4 0 -7 7 -12 15 -12 9 0
12 6 9 15 -4 8 -2 15 4 15 5 0 15 -7 22 -15 22 -27 37 -11 19 20 -4 6 -9 22
-13 38 -7 31 -26 37 -26 8z"/>
<path d="M2915 8544 c-10 -10 -14 -26 -11 -38 4 -19 4 -19 -8 -4 -11 15 -13
15 -26 -5 -7 -12 -12 -23 -11 -25 1 -2 -12 -16 -29 -32 -16 -15 -30 -33 -30
-40 0 -7 -7 -10 -16 -6 -8 3 -12 2 -9 -4 3 -6 -1 -10 -10 -10 -8 0 -21 11 -27
25 -6 14 -15 25 -20 25 -5 0 -7 3 -5 8 3 4 -1 13 -9 20 -8 7 -14 10 -14 6 0
-3 -7 -1 -15 6 -12 10 -15 9 -16 -6 -4 -77 -8 -120 -9 -124 -1 -3 -2 -13 -1
-22 1 -9 -7 -26 -18 -37 -12 -12 -21 -17 -21 -13 0 11 -78 37 -107 36 -13 -1
-23 3 -23 7 0 5 -14 9 -31 9 -16 0 -28 4 -25 8 3 5 -1 9 -9 9 -8 0 -12 -5 -9
-11 3 -6 -1 -3 -9 7 -8 9 -21 15 -29 12 -8 -3 -28 1 -44 10 -16 8 -35 15 -41
15 -14 0 -15 4 -16 101 l-1 66 -30 -1 c-16 -1 -31 -7 -33 -13 -3 -7 -10 -10
-17 -7 -7 3 -19 -2 -26 -11 -7 -8 -18 -15 -25 -15 -6 0 -22 -9 -35 -20 -12
-11 -27 -17 -31 -14 -5 3 -9 0 -9 -5 0 -6 -15 -11 -32 -12 l-33 -1 30 -13 c25
-11 31 -11 38 1 4 7 14 11 21 8 7 -3 16 2 20 11 3 9 10 13 16 10 5 -3 10 -2
10 3 0 6 10 8 22 4 14 -3 19 -2 14 6 -4 7 -1 12 8 12 9 0 16 4 16 9 0 19 39 6
49 -16 7 -15 7 -23 1 -23 -6 0 -10 -5 -10 -11 0 -5 5 -7 10 -4 6 3 10 1 10 -4
0 -6 -4 -11 -10 -11 -5 0 -10 -5 -10 -11 0 -5 5 -7 11 -3 8 5 8 1 0 -14 -14
-27 -14 -35 1 -26 7 5 9 2 6 -8 -5 -11 0 -14 18 -10 14 2 24 0 24 -8 0 -7 8
-9 20 -5 15 5 20 2 21 -12 0 -10 3 -13 5 -7 6 13 54 6 54 -8 0 -5 5 -6 10 -3
6 3 10 1 10 -5 0 -6 5 -8 11 -4 6 3 15 0 20 -7 8 -12 11 -12 19 1 8 12 10 13
10 1 0 -8 3 -11 7 -8 3 4 17 0 29 -8 15 -10 25 -11 29 -4 5 7 14 4 26 -7 11
-9 22 -14 26 -11 3 4 12 2 20 -4 7 -6 22 -9 32 -6 11 3 22 0 25 -7 2 -6 3 5 1
24 -3 19 1 38 8 43 9 7 9 10 0 14 -9 3 -10 10 -3 22 5 10 7 33 5 52 -2 19 -1
28 2 21 4 -10 8 -10 21 0 9 7 13 8 9 2 -4 -6 2 -19 13 -29 11 -10 17 -21 15
-26 -3 -4 0 -11 6 -15 8 -5 10 -2 5 7 -4 8 0 5 8 -5 9 -11 16 -14 16 -8 0 7
12 17 26 22 16 6 24 16 21 24 -3 8 5 19 19 26 13 8 24 19 24 27 0 7 5 13 10
13 6 0 10 9 10 19 0 14 5 18 20 14 14 -4 20 0 20 11 0 10 4 15 9 12 5 -3 14 0
20 8 9 10 8 15 -4 20 -9 3 -13 10 -10 16 10 15 -2 12 -20 -6z"/>
<path d="M4121 8503 c-1 -6 6 -18 14 -27 8 -8 15 -19 15 -24 0 -5 24 -9 53 -8
43 1 53 4 53 18 0 18 -20 19 -45 4 -10 -6 -12 -5 -7 2 9 15 1 15 -24 2 -16 -8
-18 -8 -14 5 4 10 0 15 -14 15 -11 0 -23 6 -25 13 -4 8 -6 9 -6 0z"/>
<path d="M1831 8471 c-20 -13 2 -71 41 -107 17 -16 28 -23 24 -16 -5 8 1 12
18 12 27 0 27 24 0 34 -9 3 -12 1 -9 -4 3 -6 2 -10 -4 -10 -5 0 -13 5 -16 11
-4 6 -13 8 -21 5 -10 -4 -11 0 -4 19 8 20 6 25 -6 25 -11 0 -13 6 -9 20 7 22
6 23 -14 11z"/>
<path d="M1987 8417 c4 -6 -1 -8 -14 -5 -28 7 -44 -4 -33 -22 7 -11 11 -11 23
-1 9 7 23 11 33 9 24 -4 29 18 4 25 -13 3 -18 1 -13 -6z"/>
</g>
</svg>
